<mxfile host="app.diagrams.net" modified="2023-09-22T06:38:24.676Z" agent="Mozilla/5.0 (Windows NT 10.0; Win64; x64) AppleWebKit/537.36 (KHTML, like Gecko) Chrome/117.0.0.0 Safari/537.36" etag="KbXgFwNeOHhwdPjxTReh" version="21.8.0" type="device">
  <diagram name="Страница — 1" id="mmXJ8Wfq9l6qBzFzBONW">
    <mxGraphModel dx="989" dy="545" grid="1" gridSize="10" guides="1" tooltips="1" connect="1" arrows="1" fold="1" page="1" pageScale="1" pageWidth="827" pageHeight="1169" math="0" shadow="0">
      <root>
        <mxCell id="0" />
        <mxCell id="1" parent="0" />
        <mxCell id="tpvdPryFzsy_ckkim6EA-9" style="edgeStyle=orthogonalEdgeStyle;rounded=0;orthogonalLoop=1;jettySize=auto;html=1;exitX=0.5;exitY=0.5;exitDx=0;exitDy=0;exitPerimeter=0;entryX=0.5;entryY=1;entryDx=0;entryDy=0;" edge="1" parent="1" source="tpvdPryFzsy_ckkim6EA-1" target="tpvdPryFzsy_ckkim6EA-6">
          <mxGeometry relative="1" as="geometry" />
        </mxCell>
        <mxCell id="tpvdPryFzsy_ckkim6EA-10" style="edgeStyle=orthogonalEdgeStyle;rounded=0;orthogonalLoop=1;jettySize=auto;html=1;exitX=0.5;exitY=0.5;exitDx=0;exitDy=0;exitPerimeter=0;entryX=0.5;entryY=1;entryDx=0;entryDy=0;" edge="1" parent="1" source="tpvdPryFzsy_ckkim6EA-1" target="tpvdPryFzsy_ckkim6EA-7">
          <mxGeometry relative="1" as="geometry" />
        </mxCell>
        <mxCell id="tpvdPryFzsy_ckkim6EA-14" style="edgeStyle=orthogonalEdgeStyle;rounded=0;orthogonalLoop=1;jettySize=auto;html=1;exitX=0.5;exitY=0.5;exitDx=0;exitDy=0;exitPerimeter=0;entryX=0.5;entryY=1;entryDx=0;entryDy=0;" edge="1" parent="1" source="tpvdPryFzsy_ckkim6EA-1" target="tpvdPryFzsy_ckkim6EA-12">
          <mxGeometry relative="1" as="geometry" />
        </mxCell>
        <mxCell id="tpvdPryFzsy_ckkim6EA-19" style="edgeStyle=orthogonalEdgeStyle;rounded=0;orthogonalLoop=1;jettySize=auto;html=1;exitX=0.5;exitY=0.5;exitDx=0;exitDy=0;exitPerimeter=0;entryX=0;entryY=0.5;entryDx=0;entryDy=0;" edge="1" parent="1" source="tpvdPryFzsy_ckkim6EA-1" target="tpvdPryFzsy_ckkim6EA-13">
          <mxGeometry relative="1" as="geometry" />
        </mxCell>
        <mxCell id="tpvdPryFzsy_ckkim6EA-20" style="edgeStyle=orthogonalEdgeStyle;rounded=0;orthogonalLoop=1;jettySize=auto;html=1;exitX=0.5;exitY=0.5;exitDx=0;exitDy=0;exitPerimeter=0;entryX=0;entryY=0.5;entryDx=0;entryDy=0;" edge="1" parent="1" source="tpvdPryFzsy_ckkim6EA-1" target="tpvdPryFzsy_ckkim6EA-15">
          <mxGeometry relative="1" as="geometry" />
        </mxCell>
        <mxCell id="tpvdPryFzsy_ckkim6EA-22" style="edgeStyle=orthogonalEdgeStyle;rounded=0;orthogonalLoop=1;jettySize=auto;html=1;exitX=0.5;exitY=0.5;exitDx=0;exitDy=0;exitPerimeter=0;entryX=0.5;entryY=1;entryDx=0;entryDy=0;" edge="1" parent="1" source="tpvdPryFzsy_ckkim6EA-1" target="tpvdPryFzsy_ckkim6EA-21">
          <mxGeometry relative="1" as="geometry" />
        </mxCell>
        <mxCell id="tpvdPryFzsy_ckkim6EA-1" value="User" style="shape=umlActor;verticalLabelPosition=bottom;verticalAlign=top;html=1;outlineConnect=0;" vertex="1" parent="1">
          <mxGeometry x="330" y="340" width="30" height="60" as="geometry" />
        </mxCell>
        <mxCell id="tpvdPryFzsy_ckkim6EA-6" value="Save project (as &lt;br&gt;JSON)" style="ellipse;whiteSpace=wrap;html=1;" vertex="1" parent="1">
          <mxGeometry x="40" y="340" width="100" height="60" as="geometry" />
        </mxCell>
        <mxCell id="tpvdPryFzsy_ckkim6EA-7" value="Init project" style="ellipse;whiteSpace=wrap;html=1;" vertex="1" parent="1">
          <mxGeometry x="120" y="270" width="64" height="40" as="geometry" />
        </mxCell>
        <mxCell id="tpvdPryFzsy_ckkim6EA-8" value="-) Create new project&lt;br&gt;-) Load from JSON&amp;nbsp;" style="shape=note;whiteSpace=wrap;html=1;backgroundOutline=1;darkOpacity=0.05;size=10;" vertex="1" parent="1">
          <mxGeometry x="107" y="160" width="90" height="70" as="geometry" />
        </mxCell>
        <mxCell id="tpvdPryFzsy_ckkim6EA-11" value="" style="endArrow=none;dashed=1;html=1;dashPattern=1 3;strokeWidth=2;rounded=0;entryX=0.5;entryY=1;entryDx=0;entryDy=0;entryPerimeter=0;exitX=0.5;exitY=0;exitDx=0;exitDy=0;" edge="1" parent="1" source="tpvdPryFzsy_ckkim6EA-7" target="tpvdPryFzsy_ckkim6EA-8">
          <mxGeometry width="50" height="50" relative="1" as="geometry">
            <mxPoint x="420" y="310" as="sourcePoint" />
            <mxPoint x="470" y="260" as="targetPoint" />
          </mxGeometry>
        </mxCell>
        <mxCell id="tpvdPryFzsy_ckkim6EA-12" value="Export project as HTML with CSS" style="ellipse;whiteSpace=wrap;html=1;" vertex="1" parent="1">
          <mxGeometry x="220" y="192" width="100" height="70" as="geometry" />
        </mxCell>
        <mxCell id="tpvdPryFzsy_ckkim6EA-13" value="Create object" style="ellipse;whiteSpace=wrap;html=1;" vertex="1" parent="1">
          <mxGeometry x="510" y="380" width="60" height="50" as="geometry" />
        </mxCell>
        <mxCell id="tpvdPryFzsy_ckkim6EA-15" value="Change object" style="ellipse;whiteSpace=wrap;html=1;" vertex="1" parent="1">
          <mxGeometry x="500" y="290" width="60" height="50" as="geometry" />
        </mxCell>
        <mxCell id="tpvdPryFzsy_ckkim6EA-16" value="Set property value" style="shape=note;whiteSpace=wrap;html=1;backgroundOutline=1;darkOpacity=0.05;size=10;" vertex="1" parent="1">
          <mxGeometry x="580" y="290" width="70" height="50" as="geometry" />
        </mxCell>
        <mxCell id="tpvdPryFzsy_ckkim6EA-18" value="" style="endArrow=none;dashed=1;html=1;dashPattern=1 3;strokeWidth=2;rounded=0;entryX=0;entryY=0.5;entryDx=0;entryDy=0;entryPerimeter=0;exitX=1;exitY=0.5;exitDx=0;exitDy=0;" edge="1" parent="1" source="tpvdPryFzsy_ckkim6EA-15" target="tpvdPryFzsy_ckkim6EA-16">
          <mxGeometry width="50" height="50" relative="1" as="geometry">
            <mxPoint x="610" y="260" as="sourcePoint" />
            <mxPoint x="162" y="240" as="targetPoint" />
          </mxGeometry>
        </mxCell>
        <mxCell id="tpvdPryFzsy_ckkim6EA-21" value="Animate object" style="ellipse;whiteSpace=wrap;html=1;" vertex="1" parent="1">
          <mxGeometry x="355" y="220" width="70" height="42" as="geometry" />
        </mxCell>
        <mxCell id="tpvdPryFzsy_ckkim6EA-23" value="-) Translate&lt;br&gt;-) Rotate&lt;br&gt;-) Scale&amp;nbsp;" style="shape=note;whiteSpace=wrap;html=1;backgroundOutline=1;darkOpacity=0.05;size=10;" vertex="1" parent="1">
          <mxGeometry x="345" y="122" width="90" height="70" as="geometry" />
        </mxCell>
        <mxCell id="tpvdPryFzsy_ckkim6EA-24" value="" style="endArrow=none;dashed=1;html=1;dashPattern=1 3;strokeWidth=2;rounded=0;entryX=0.5;entryY=1;entryDx=0;entryDy=0;entryPerimeter=0;exitX=0.5;exitY=0;exitDx=0;exitDy=0;" edge="1" parent="1" source="tpvdPryFzsy_ckkim6EA-21" target="tpvdPryFzsy_ckkim6EA-23">
          <mxGeometry width="50" height="50" relative="1" as="geometry">
            <mxPoint x="162" y="280" as="sourcePoint" />
            <mxPoint x="162" y="240" as="targetPoint" />
          </mxGeometry>
        </mxCell>
        <mxCell id="tpvdPryFzsy_ckkim6EA-25" value="-) Shape&lt;br&gt;-) Animation" style="shape=note;whiteSpace=wrap;html=1;backgroundOutline=1;darkOpacity=0.05;size=10;" vertex="1" parent="1">
          <mxGeometry x="590" y="380" width="70" height="50" as="geometry" />
        </mxCell>
        <mxCell id="tpvdPryFzsy_ckkim6EA-26" value="" style="endArrow=none;dashed=1;html=1;dashPattern=1 3;strokeWidth=2;rounded=0;entryX=0;entryY=0.5;entryDx=0;entryDy=0;entryPerimeter=0;exitX=1;exitY=0.5;exitDx=0;exitDy=0;" edge="1" parent="1" target="tpvdPryFzsy_ckkim6EA-25">
          <mxGeometry width="50" height="50" relative="1" as="geometry">
            <mxPoint x="570" y="405" as="sourcePoint" />
            <mxPoint x="172" y="330" as="targetPoint" />
          </mxGeometry>
        </mxCell>
      </root>
    </mxGraphModel>
  </diagram>
</mxfile>
